<svg id="Layer_1" data-name="Layer 1" xmlns="http://www.w3.org/2000/svg" viewBox="0 0 60 110"><defs><style>.cls-1{fill:#4c2158;}</style></defs><g id="Layer_2" data-name="Layer 2"><g id="Fond"><path class="cls-1" d="M38.09,20.13a8.19,8.19,0,0,0-6,4.54A13.7,13.7,0,0,0,30.8,31.4a30.38,30.38,0,0,0,1.79,9.1c1.15,3.57,2.33,7.1,3.49,10.65S38.33,58.5,37.8,62.5A36.22,36.22,0,0,1,35,72.06,55.54,55.54,0,0,1,24.15,88c-5.45,5.7-11.73,10.58-18,15.44-.27.2.25,1.4,0,1.58C16.77,96.79,27.8,88.15,34,75.92A36,36,0,0,0,38,59a31.83,31.83,0,0,0-2-9.39c-1.16-3.55-2.34-7.09-3.49-10.64-1.21-3.78-2.53-7.86-1-11.72A8.47,8.47,0,0,1,38,21.73,9.52,9.52,0,0,0,38.09,20.13Z"/><path class="cls-1" d="M32.3,18.67a97.18,97.18,0,0,1,11-1.74V15.34A32.94,32.94,0,0,0,40,24.07c-.12.51.11,1.1,0,1.6a33.27,33.27,0,0,1,3.32-8.74c.08-.15-.07-1.59,0-1.59a92.88,92.88,0,0,0-11,1.74C32.17,17.08,32.4,18.65,32.3,18.67Z"/><path class="cls-1" d="M28,103c-5.5-12.81-11.43-27.18-6.68-41.12C25.38,50,34.77,41.12,41.93,31.16c4.12-5.73,7.62-12,8.91-19,.09-.52-.09-1.09,0-1.6C48.3,24.41,37.66,34.44,29.64,45.32c-4,5.36-7.5,11.19-9.13,17.71a44.27,44.27,0,0,0-.42,17.76c1.38,8.27,4.6,16.1,7.89,23.76-.2-.44.2-1.14,0-1.59Z"/><path class="cls-1" d="M45.7,13.79A25.93,25.93,0,0,0,53,6.59v.72c0,.43-.06.85-.09,1.27-.07.86-.08,1.72-.08,2.59A25.4,25.4,0,0,0,53.89,18c-.13-.49.14-1.1,0-1.6A37.1,37.1,0,0,1,53,12.5c-.07-.46-.13-.92-.17-1.38V10.5c.1,1.42,0,.69,0,.31.09-1.81.22-3.59.21-5.41A1.34,1.34,0,0,1,53,5a25.4,25.4,0,0,1-7.26,7.2,2.68,2.68,0,0,0,0,.8c0,.09.08.75,0,.8Z"/></g></g></svg>