<svg xmlns="http://www.w3.org/2000/svg" viewBox="0 0 620.77 150.51"><defs><style>.cls-1{fill:#08c;}.cls-2{fill:#444;}</style></defs><g id="Layer_2" data-name="Layer 2"><g id="Layer_1-2" data-name="Layer 1"><path class="cls-1" d="M23.31,74.49q15,0,22.68,4.2T53.65,93.5a18.76,18.76,0,0,1-3,10.81,12.38,12.38,0,0,1-8.56,5.36v.52a20.12,20.12,0,0,1,6.83,2.63,13.16,13.16,0,0,1,4.83,5.46,21.25,21.25,0,0,1,1.78,9.45q0,10.19-7.35,16T28,149.46H0v-75Zm1.78,29.72c4.62,0,7.83-.74,9.61-2.21a7.8,7.8,0,0,0,2.68-6.4q0-4.3-3.15-6.2t-10-1.89h-8.4v16.7Zm-9.24,12.6v19.53h10.4q7.14,0,10-2.78a9.93,9.93,0,0,0,2.84-7.41,8.62,8.62,0,0,0-2.89-6.77q-2.88-2.56-10.45-2.57Z"/><path class="cls-1" d="M118,120.69q0,14.28-7.51,22.05t-20.42,7.77a28.86,28.86,0,0,1-14.23-3.46A24.55,24.55,0,0,1,66,136.92q-3.57-6.67-3.57-16.23,0-14.28,7.46-21.94T90.4,91.08a28.76,28.76,0,0,1,14.28,3.47,24.72,24.72,0,0,1,9.77,10Q118,111.14,118,120.69Zm-39.59,0q0,8.5,2.79,12.87t9.08,4.35q6.2,0,9-4.35t2.78-12.87q0-8.5-2.78-12.75t-9.09-4.26q-6.19,0-9,4.26T78.43,120.69Z"/><path class="cls-1" d="M179.65,120.69q0,14.28-7.5,22.05t-20.43,7.77a28.79,28.79,0,0,1-14.22-3.46,24.49,24.49,0,0,1-9.82-10.13q-3.57-6.67-3.57-16.23,0-14.28,7.45-21.94T152,91.08a28.76,28.76,0,0,1,14.28,3.47,24.7,24.7,0,0,1,9.76,10Q179.65,111.14,179.65,120.69Zm-39.58,0q0,8.5,2.78,12.87t9.08,4.35q6.19,0,9-4.35t2.78-12.87q0-8.5-2.78-12.75t-9.08-4.26q-6.2,0-9,4.26T140.07,120.69Z"/><path class="cls-1" d="M204.85,105.36c0,2.17-.09,4.33-.26,6.46s-.37,4.29-.58,6.46h.21q1.58-2.2,3.26-4.46a46.23,46.23,0,0,1,3.57-4.26l16.06-17.43h17.64L222,117l24.15,32.44H228.06l-16.49-23.2-6.72,5.35v17.85H189.21V69.66h15.64Z"/><path class="cls-1" d="M274.57,91.08q11.87,0,18.8,6.78t6.93,19.26v7.56h-37q.21,6.62,3.93,10.4t10.35,3.78a42.82,42.82,0,0,0,10.08-1.1,48.63,48.63,0,0,0,9.34-3.42v12.08a37.33,37.33,0,0,1-8.87,3.1,55.37,55.37,0,0,1-11.29,1,34.44,34.44,0,0,1-15.22-3.2,23.77,23.77,0,0,1-10.4-9.71q-3.78-6.51-3.78-16.38,0-10.08,3.41-16.75a23.22,23.22,0,0,1,9.51-10A28.85,28.85,0,0,1,274.57,91.08Zm.11,11.13a10.28,10.28,0,0,0-7.51,2.94q-3,2.94-3.52,9.14h22a14.27,14.27,0,0,0-2.73-8.66Q280.25,102.21,274.68,102.21Z"/><path class="cls-1" d="M341.66,91.08c.77,0,1.69,0,2.74.11a17.21,17.21,0,0,1,2.51.31l-1.15,14.7a13.63,13.63,0,0,0-2.15-.36,21.7,21.7,0,0,0-2.47-.16,21,21,0,0,0-7.66,1.42,12.75,12.75,0,0,0-5.94,4.56q-2.25,3.15-2.25,8.61v29.19H309.64V92.13h11.87l2.3,9.66h.74a23.7,23.7,0,0,1,6.93-7.56A17.06,17.06,0,0,1,341.66,91.08Z"/><path class="cls-2" d="M378.52,74.49q15,0,22.68,4.2t7.67,14.81a18.76,18.76,0,0,1-3,10.81,12.38,12.38,0,0,1-8.56,5.36v.52a20.12,20.12,0,0,1,6.83,2.63,13.16,13.16,0,0,1,4.83,5.46,21.25,21.25,0,0,1,1.78,9.45q0,10.19-7.35,16t-20.16,5.77h-28v-75Zm1.79,29.72c4.61,0,7.82-.74,9.6-2.21a7.8,7.8,0,0,0,2.68-6.4q0-4.3-3.15-6.2c-2.1-1.26-5.43-1.89-10-1.89h-8.41v16.7Zm-9.25,12.6v19.53h10.4q7.14,0,10-2.78a9.93,9.93,0,0,0,2.84-7.41,8.62,8.62,0,0,0-2.89-6.77q-2.88-2.56-10.45-2.57Z"/><path class="cls-2" d="M444.77,91.08q11.87,0,18.8,6.78t6.93,19.26v7.56h-37q.21,6.62,3.94,10.4t10.34,3.78a42.82,42.82,0,0,0,10.08-1.1,48.63,48.63,0,0,0,9.34-3.42v12.08a37.18,37.18,0,0,1-8.87,3.1,55.3,55.3,0,0,1-11.29,1,34.44,34.44,0,0,1-15.22-3.2,23.77,23.77,0,0,1-10.4-9.71q-3.78-6.51-3.78-16.38,0-10.08,3.42-16.75a23.14,23.14,0,0,1,9.5-10A28.85,28.85,0,0,1,444.77,91.08Zm.11,11.13a10.29,10.29,0,0,0-7.51,2.94q-3,2.94-3.52,9.14H455.8a14.27,14.27,0,0,0-2.73-8.66Q450.45,102.21,444.88,102.21Z"/><path class="cls-2" d="M503.47,91.08q11.87,0,18.79,6.78t6.93,19.26v7.56h-37q.21,6.62,3.94,10.4t10.34,3.78a42.82,42.82,0,0,0,10.08-1.1,48.71,48.71,0,0,0,9.35-3.42v12.08a37.26,37.26,0,0,1-8.88,3.1,55.2,55.2,0,0,1-11.28,1,34.48,34.48,0,0,1-15.23-3.2,23.75,23.75,0,0,1-10.39-9.71q-3.78-6.51-3.78-16.38,0-10.08,3.41-16.75a23.14,23.14,0,0,1,9.5-10A28.89,28.89,0,0,1,503.47,91.08Zm.1,11.13a10.29,10.29,0,0,0-7.51,2.94q-3,2.94-3.51,9.14h21.94a14.27,14.27,0,0,0-2.73-8.66Q509.14,102.21,503.57,102.21Z"/><path class="cls-2" d="M600.8,57.06a47.13,47.13,0,0,1-9.43,22.57c6.08-1.63,10.81-4.4,12.43-8.65C605.33,66.94,603.9,62.05,600.8,57.06Z"/><path class="cls-2" d="M595.21,49.77a82.55,82.55,0,0,0-8.32-8q.06,1.17.06,2.34A47.39,47.39,0,0,1,568.9,81.38a88,88,0,0,0,12.89-.13,41.38,41.38,0,0,0,13.45-30.54C595.24,50.4,595.22,50.09,595.21,49.77Z"/><path class="cls-2" d="M560.9,33.87a43.11,43.11,0,0,0-.29-4.85,25.4,25.4,0,0,0-20.5,40.78A41.51,41.51,0,0,0,560.9,33.87Z"/><path class="cls-2" d="M580.28,36.77a54.71,54.71,0,0,0-10.93-6.08,25.86,25.86,0,0,0-2.63-.84c.11,1.33.18,2.66.18,4a47.48,47.48,0,0,1-22.5,40.35,25.63,25.63,0,0,0,6.88,3.94,47.75,47.75,0,0,0,8.47,2.17,41.41,41.41,0,0,0,20.53-43.56Z"/><path class="cls-2" d="M604.79,10.55a10,10,0,0,1,3.88,19.16c-2.49,1-7.89,2.17-13.88,2.17-8,0-10.9-2-11.17-2.41s.38-3.57,5.2-8.81c4.17-4.53,9.25-8.12,12.1-9.32a9.78,9.78,0,0,1,3.87-.79m0-6a15.8,15.8,0,0,0-6.2,1.26c-8.13,3.43-23.93,17.85-20.5,26,1.88,4.47,9.17,6.1,16.7,6.1,6.19,0,12.55-1.1,16.21-2.65a16,16,0,0,0-6.21-30.68Z"/><path class="cls-2" d="M562.78,5.5a5.43,5.43,0,0,1,5,3.33c1.77,4.19,1.09,11.67-.31,13.22-2.37-.17-8.06-5.09-9.71-9a5.42,5.42,0,0,1,2.9-7.12,5.27,5.27,0,0,1,2.11-.43m0-5.5A10.94,10.94,0,0,0,552.7,15.19c2.08,4.93,9.39,12.37,14.9,12.37a5.09,5.09,0,0,0,2-.4c5.57-2.34,5.59-14.91,3.24-20.47A10.94,10.94,0,0,0,562.78,0Z"/></g></g></svg>