<svg xmlns="http://www.w3.org/2000/svg" viewBox="0 0 630.22 190.83"><defs><style>.cls-1{font-size:105px;fill:#08c;font-family:NotoSans-Bold, Noto Sans;font-weight:700;letter-spacing:-0.03em;}.cls-2{fill:#444;}</style></defs><g id="Layer_2" data-name="Layer 2"><g id="Layer_1-2" data-name="Layer 1"><text class="cls-1" transform="translate(0 149.46)">Booker<tspan class="cls-2" x="355.21" y="0">Bee</tspan></text><path class="cls-2" d="M610.25,57.06a47.13,47.13,0,0,1-9.43,22.57c6.08-1.63,10.81-4.4,12.43-8.65C614.78,66.94,613.35,62.05,610.25,57.06Z"/><path class="cls-2" d="M604.66,49.77a82.55,82.55,0,0,0-8.32-8q.06,1.17.06,2.34a47.39,47.39,0,0,1-18,37.22,88,88,0,0,0,12.89-.13,41.38,41.38,0,0,0,13.45-30.54C604.69,50.4,604.67,50.09,604.66,49.77Z"/><path class="cls-2" d="M570.35,33.87a43.11,43.11,0,0,0-.29-4.85,25.4,25.4,0,0,0-20.5,40.78A41.51,41.51,0,0,0,570.35,33.87Z"/><path class="cls-2" d="M589.73,36.77a54.71,54.71,0,0,0-10.93-6.08,25.86,25.86,0,0,0-2.63-.84c.11,1.33.18,2.66.18,4a47.48,47.48,0,0,1-22.5,40.35,25.63,25.63,0,0,0,6.88,3.94,47.75,47.75,0,0,0,8.47,2.17,41.41,41.41,0,0,0,20.53-43.56Z"/><path class="cls-2" d="M614.24,10.55a10,10,0,0,1,3.88,19.16c-2.49,1-7.89,2.17-13.88,2.17-8,0-10.9-2-11.17-2.41s.38-3.57,5.2-8.81c4.17-4.53,9.25-8.12,12.1-9.32a9.78,9.78,0,0,1,3.87-.79m0-6A15.8,15.8,0,0,0,608,5.81c-8.13,3.43-23.93,17.85-20.5,26,1.88,4.47,9.17,6.1,16.7,6.1,6.19,0,12.55-1.1,16.21-2.65a16,16,0,0,0-6.21-30.68Z"/><path class="cls-2" d="M572.23,5.5a5.43,5.43,0,0,1,5,3.33c1.77,4.19,1.09,11.67-.31,13.22-2.37-.17-8.06-5.09-9.71-9a5.42,5.42,0,0,1,2.9-7.12,5.27,5.27,0,0,1,2.11-.43m0-5.5a10.94,10.94,0,0,0-10.08,15.19c2.08,4.93,9.39,12.37,14.9,12.37a5.09,5.09,0,0,0,2-.4c5.57-2.34,5.59-14.91,3.24-20.47A10.94,10.94,0,0,0,572.23,0Z"/></g></g></svg>